# xmcd CD database file
#
# Track frame offsets:
#	150
#	19312
#	41877
#
# Disc length: 810 seconds
#
# Revision: 0
# Processed by: cddbd v1.5.1PL0 Copyright (c) Steve Scherf et al.
# Submitted via: CDex 1.51
#
DISCID=22032803
DTITLE=吉川晃司 - ジェラシーを微笑みにかえて
DYEAR=1992
DGENRE=JPop
TTITLE0=ジェラシーを微笑みにかえて
TTITLE1=RAIN BEAT
TTITLE2=ジェラシーを微笑みにかえて(カラオケ)
EXTD=YEAR: 1992
EXTT0=
EXTT1=
EXTT2=
PLAYORDER=
